<svg width="1440" height="496" viewBox="0 0 1440 496" fill="none" xmlns="http://www.w3.org/2000/svg">
<path fill-rule="evenodd" clip-rule="evenodd" d="M30 14.3766L0 0.5V208V496H1440V208V125L1410 131.873C1380 139.266 1320 152.234 1260 145.75C1203.33 139.626 1146.67 113.836 1090 88.0471C1086.67 86.5301 1083.33 85.013 1080 83.5C1077.91 82.5511 1075.82 81.6006 1073.73 80.6501C1015.82 54.321 957.909 27.9919 900 35.1266C866.625 38.9499 833.25 53.4872 799.875 68.0245C773.25 79.6217 746.625 91.2188 720 97.3766C660 110.734 600 97.7656 540 69.6234C524.965 62.7014 509.93 54.908 494.895 47.1146C449.93 23.8073 404.965 0.5 360 0.5C327.291 0.5 294.583 12.8331 261.874 25.1662C234.583 35.4566 207.291 45.747 180 48.8734C122.765 55.9249 65.5305 30.288 34.3361 16.3151C32.829 15.64 31.3826 14.9922 30 14.3766Z" fill="url(#paint0_radial_59_7)"/>
<defs>
<radialGradient id="paint0_radial_59_7" cx="0" cy="0" r="1" gradientUnits="userSpaceOnUse" gradientTransform="translate(720 -305) rotate(90) scale(801 2327.83)">
<stop offset="0.34579" stop-color="#FFDDDD"/>
<stop offset="1" stop-color="#FFFCBF"/>
</radialGradient>
</defs>
</svg>
